# xmcd
#
# Track frame offsets: 
#        150
#        16450
#        35823
#        51446
#        66364
#        77229
#        96545
#        111032
#        120739
#        133729
#        147405
#        162314
#        179297
#        199427
#        212957
#
# Disc length: 2959 seconds
#
# Revision: 0
# Processed by: cddbd v1.5.2PL0 Copyright (c) Steve Scherf et al.
# Submitted via: ExactAudioCopyFreeDBPlugin 1.0
#
DISCID=f10b8d0f
DTITLE=Joey and Rory - A Farmhouse Christmas - Walmart Edition
DYEAR=2016
DGENRE=Country
TTITLE0=It's Christmas Time
TTITLE1=The Gift
TTITLE2=If We Make It Through December
TTITLE3=Remember Me
TTITLE4=I Know What Santa's Getting For Christmas
TTITLE5=What The Hell (It's The Holidays)
TTITLE6=Blue Christmas
TTITLE7=Come Sit On Santa Claus' Lap
TTITLE8=The Diamond O
TTITLE9=Away In A Manger
TTITLE10=Let It Snow (Somewhere Else)
TTITLE11=Another Wonderful Christmas
TTITLE12=Nothing But A Child - bonus track
TTITLE13=What You Give - bonus track
TTITLE14=C Is For The Christ Child - bonus track
EXTD=
EXTT0=
EXTT1=
EXTT2=
EXTT3=
EXTT4=
EXTT5=
EXTT6=
EXTT7=
EXTT8=
EXTT9=
EXTT10=
EXTT11=
EXTT12=
EXTT13=
EXTT14=
PLAYORDER=
